<svg width="340" height="50" viewBox="0 0 340 50" fill="none" xmlns="http://www.w3.org/2000/svg">
<rect width="340" height="50" rx="12" fill="#008D80"/>
<path fill-rule="evenodd" clip-rule="evenodd" d="M32.8084 30.3385L29.6031 27.1211C30.4269 26.177 30.8775 24.9845 30.8775 23.7484C30.8775 20.854 28.4381 18.5 25.4387 18.5C22.4394 18.5 20 20.854 20 23.7484C20 26.6429 22.4394 28.9969 25.4387 28.9969C26.5651 28.9969 27.64 28.6677 28.554 28.0466L31.785 31.2888C31.9202 31.4255 32.1004 31.5 32.2935 31.5C32.4802 31.5 32.6539 31.4317 32.7827 31.3075C33.0659 31.0466 33.0723 30.6118 32.802 30.3385H32.8084ZM25.4387 19.8665C27.6529 19.8665 29.4615 21.6056 29.4615 23.7484C29.4615 25.8851 27.6593 27.6304 25.4387 27.6304C23.2246 27.6304 21.416 25.8913 21.416 23.7484C21.416 21.6118 23.2182 19.8665 25.4387 19.8665Z" fill="white"/>
<path d="M52.502 19.8182V30H50.9707V21.1307H46.1781V30H44.6468V19.8182H52.502ZM57.9483 30.1541C57.2324 30.1541 56.6077 29.9901 56.074 29.6619C55.5404 29.3338 55.1261 28.8748 54.8311 28.2848C54.5362 27.6948 54.3887 27.0054 54.3887 26.2166C54.3887 25.4245 54.5362 24.7318 54.8311 24.1385C55.1261 23.5452 55.5404 23.0845 56.074 22.7564C56.6077 22.4283 57.2324 22.2642 57.9483 22.2642C58.6642 22.2642 59.289 22.4283 59.8226 22.7564C60.3562 23.0845 60.7705 23.5452 61.0655 24.1385C61.3605 24.7318 61.508 25.4245 61.508 26.2166C61.508 27.0054 61.3605 27.6948 61.0655 28.2848C60.7705 28.8748 60.3562 29.3338 59.8226 29.6619C59.289 29.9901 58.6642 30.1541 57.9483 30.1541ZM57.9533 28.9062C58.4173 28.9062 58.8018 28.7836 59.1067 28.5384C59.4116 28.2931 59.637 27.9666 59.7828 27.5589C59.932 27.1513 60.0066 26.7022 60.0066 26.2116C60.0066 25.7244 59.932 25.277 59.7828 24.8693C59.637 24.4583 59.4116 24.1286 59.1067 23.88C58.8018 23.6314 58.4173 23.5071 57.9533 23.5071C57.486 23.5071 57.0982 23.6314 56.79 23.88C56.485 24.1286 56.258 24.4583 56.1088 24.8693C55.963 25.277 55.8901 25.7244 55.8901 26.2116C55.8901 26.7022 55.963 27.1513 56.1088 27.5589C56.258 27.9666 56.485 28.2931 56.79 28.5384C57.0982 28.7836 57.486 28.9062 57.9533 28.9062ZM62.5657 30L62.5607 28.7124H62.8342C63.0463 28.7124 63.2236 28.6676 63.3661 28.5781C63.512 28.4853 63.6313 28.3295 63.7241 28.1108C63.8169 27.892 63.8881 27.5904 63.9379 27.206C63.9876 26.8182 64.024 26.331 64.0472 25.7443L64.1815 22.3636H69.511V30H68.0543V23.6463H65.5586L65.4393 26.2415C65.4094 26.8712 65.3448 27.4214 65.2454 27.892C65.1493 28.3627 65.0084 28.7554 64.8228 29.0703C64.6372 29.3819 64.3986 29.6155 64.1069 29.7713C63.8152 29.9238 63.4606 30 63.043 30H62.5657ZM72.1596 32.8636C71.9376 32.8636 71.7354 32.8454 71.5531 32.8089C71.3708 32.7758 71.2349 32.7393 71.1454 32.6996L71.5034 31.4815C71.7752 31.5545 72.0171 31.5859 72.2292 31.576C72.4413 31.5661 72.6286 31.4865 72.791 31.3374C72.9567 31.1882 73.1026 30.9446 73.2285 30.6065L73.4125 30.0994L70.6184 22.3636H72.2093L74.1433 28.2898H74.2228L76.1568 22.3636H77.7527L74.6056 31.0192C74.4598 31.4169 74.2742 31.7533 74.0488 32.0284C73.8234 32.3068 73.555 32.5156 73.2434 32.6548C72.9319 32.794 72.5706 32.8636 72.1596 32.8636ZM85.0609 22.3636V30H83.6092V22.3636H85.0609ZM84.4295 25.9084V27.1911C84.2008 27.2839 83.9589 27.3667 83.7037 27.4396C83.4484 27.5092 83.18 27.5639 82.8983 27.6037C82.6165 27.6435 82.3232 27.6634 82.0183 27.6634C81.0737 27.6634 80.323 27.433 79.7662 26.9723C79.2093 26.5083 78.9309 25.799 78.9309 24.8445V22.3487H80.3777V24.8445C80.3777 25.2057 80.444 25.4991 80.5765 25.7244C80.7091 25.9498 80.898 26.1155 81.1433 26.2216C81.3886 26.3277 81.6802 26.3807 82.0183 26.3807C82.4657 26.3807 82.8784 26.3393 83.2562 26.2564C83.6374 26.1702 84.0285 26.0542 84.4295 25.9084ZM88.495 27.9169L91.8608 22.3636H93.4616V30H92.005V24.4418L88.6541 30H87.0384V22.3636H88.495V27.9169ZM94.5131 23.6463V22.3636H100.956V23.6463H98.4656V30H97.0138V23.6463H94.5131ZM103.647 24.9886H105.865C106.799 24.9886 107.518 25.2206 108.022 25.6847C108.526 26.1487 108.778 26.7469 108.778 27.4794C108.778 27.9567 108.665 28.3859 108.44 28.767C108.214 29.1482 107.885 29.4498 107.45 29.6719C107.016 29.8906 106.488 30 105.865 30H102.529V22.3636H103.985V28.7173H105.865C106.292 28.7173 106.643 28.6063 106.919 28.3842C107.194 28.1589 107.331 27.8722 107.331 27.5241C107.331 27.1562 107.194 26.8563 106.919 26.6243C106.643 26.389 106.292 26.2713 105.865 26.2713H103.647V24.9886ZM117.993 25.5952V26.8878H113.921V25.5952H117.993ZM115.129 22.3636V30H113.643V22.3636H115.129ZM120.319 30.1541C119.61 30.1541 118.99 29.9884 118.46 29.657C117.93 29.3255 117.519 28.8648 117.227 28.2749C116.935 27.6816 116.79 26.9938 116.79 26.2116C116.79 25.4228 116.935 24.7334 117.227 24.1435C117.519 23.5502 117.93 23.0895 118.46 22.7614C118.99 22.4299 119.61 22.2642 120.319 22.2642C121.032 22.2642 121.652 22.4299 122.179 22.7614C122.709 23.0895 123.12 23.5502 123.412 24.1435C123.707 24.7334 123.854 25.4228 123.854 26.2116C123.854 26.9938 123.707 27.6816 123.412 28.2749C123.12 28.8648 122.709 29.3255 122.179 29.657C121.652 29.9884 121.032 30.1541 120.319 30.1541ZM120.319 28.8814C120.8 28.8814 121.193 28.7604 121.498 28.5185C121.806 28.2732 122.033 27.9484 122.179 27.544C122.325 27.1397 122.398 26.6955 122.398 26.2116C122.398 25.7244 122.325 25.2786 122.179 24.8743C122.033 24.4666 121.806 24.1402 121.498 23.8949C121.193 23.6496 120.8 23.527 120.319 23.527C119.842 23.527 119.449 23.6496 119.141 23.8949C118.833 24.1402 118.606 24.4666 118.46 24.8743C118.314 25.2786 118.241 25.7244 118.241 26.2116C118.241 26.6955 118.314 27.1397 118.46 27.544C118.606 27.9484 118.833 28.2732 119.141 28.5185C119.449 28.7604 119.842 28.8814 120.319 28.8814ZM125.607 32.8636V22.3636H127.058V23.6016H127.183C127.269 23.4425 127.393 23.2585 127.556 23.0497C127.718 22.8409 127.943 22.6586 128.232 22.5028C128.52 22.3437 128.901 22.2642 129.375 22.2642C129.992 22.2642 130.542 22.42 131.026 22.7315C131.51 23.0431 131.889 23.4922 132.164 24.0788C132.443 24.6655 132.582 25.3714 132.582 26.1967C132.582 27.022 132.444 27.7296 132.169 28.3196C131.894 28.9062 131.516 29.3587 131.036 29.6768C130.555 29.9917 130.007 30.1491 129.39 30.1491C128.926 30.1491 128.547 30.0713 128.252 29.9155C127.96 29.7597 127.731 29.5774 127.566 29.3686C127.4 29.1598 127.272 28.9742 127.183 28.8118H127.093V32.8636H125.607ZM127.063 26.1818C127.063 26.7187 127.141 27.1894 127.297 27.5938C127.453 27.9981 127.678 28.3146 127.973 28.5433C128.268 28.7687 128.629 28.8814 129.057 28.8814C129.501 28.8814 129.872 28.7637 130.171 28.5284C130.469 28.2898 130.694 27.9666 130.847 27.5589C131.003 27.1513 131.08 26.6922 131.08 26.1818C131.08 25.678 131.004 25.2256 130.852 24.8246C130.703 24.4235 130.477 24.107 130.176 23.875C129.877 23.643 129.504 23.527 129.057 23.527C128.626 23.527 128.262 23.638 127.963 23.8601C127.668 24.0821 127.445 24.392 127.292 24.7898C127.14 25.1875 127.063 25.6515 127.063 26.1818ZM135.704 27.9169L139.07 22.3636H140.671V30H139.214V24.4418L135.863 30H134.247V22.3636H135.704V27.9169ZM141.923 32.2024V28.7124H142.545C142.704 28.5665 142.838 28.3925 142.948 28.1903C143.06 27.9882 143.155 27.7479 143.231 27.4695C143.311 27.1911 143.377 26.8662 143.43 26.495C143.483 26.1205 143.529 25.6929 143.569 25.2124L143.808 22.3636H148.998V28.7124H150.171V32.2024H148.72V30H143.395V32.2024H141.923ZM144.136 28.7124H147.546V23.6364H145.14L144.981 25.2124C144.905 26.0144 144.809 26.7105 144.693 27.3004C144.577 27.8871 144.391 28.3577 144.136 28.7124ZM153.081 27.9169L156.447 22.3636H158.048V30H156.591V24.4418L153.24 30H151.624V22.3636H153.081V27.9169ZM166.176 22.3636V30H164.724V22.3636H166.176ZM165.545 25.9084V27.1911C165.316 27.2839 165.074 27.3667 164.819 27.4396C164.564 27.5092 164.295 27.5639 164.013 27.6037C163.732 27.6435 163.438 27.6634 163.134 27.6634C162.189 27.6634 161.438 27.433 160.881 26.9723C160.325 26.5083 160.046 25.799 160.046 24.8445V22.3487H161.493V24.8445C161.493 25.2057 161.559 25.4991 161.692 25.7244C161.824 25.9498 162.013 26.1155 162.259 26.2216C162.504 26.3277 162.795 26.3807 163.134 26.3807C163.581 26.3807 163.994 26.3393 164.371 26.2564C164.753 26.1702 165.144 26.0542 165.545 25.9084ZM171.445 30.1541C170.692 30.1541 170.044 29.9934 169.501 29.6719C168.961 29.3471 168.543 28.8913 168.248 28.3047C167.956 27.7147 167.811 27.0237 167.811 26.2315C167.811 25.4493 167.956 24.7599 168.248 24.1634C168.543 23.5668 168.954 23.1011 169.481 22.7663C170.011 22.4316 170.631 22.2642 171.34 22.2642C171.771 22.2642 172.189 22.3355 172.593 22.478C172.998 22.6205 173.36 22.8442 173.682 23.1491C174.003 23.4541 174.257 23.8501 174.443 24.3374C174.628 24.8213 174.721 25.4096 174.721 26.1023V26.6293H168.651V25.5156H173.264C173.264 25.1245 173.185 24.7782 173.026 24.4766C172.867 24.1716 172.643 23.9313 172.355 23.7557C172.07 23.58 171.735 23.4922 171.35 23.4922C170.933 23.4922 170.568 23.5949 170.257 23.8004C169.948 24.0026 169.71 24.2678 169.541 24.5959C169.375 24.9207 169.292 25.2737 169.292 25.6548V26.5249C169.292 27.0353 169.382 27.4695 169.561 27.8274C169.743 28.1854 169.996 28.4588 170.321 28.6477C170.646 28.8333 171.026 28.9261 171.46 28.9261C171.741 28.9261 171.998 28.8864 172.23 28.8068C172.462 28.724 172.663 28.6013 172.832 28.4389C173.001 28.2765 173.13 28.076 173.22 27.8374L174.627 28.0909C174.514 28.5052 174.312 28.8681 174.02 29.1797C173.732 29.4879 173.369 29.7282 172.931 29.9006C172.497 30.0696 172.002 30.1541 171.445 30.1541ZM179.587 30.1541C178.848 30.1541 178.212 29.9867 177.678 29.652C177.148 29.3139 176.74 28.8482 176.455 28.255C176.17 27.6617 176.027 26.9822 176.027 26.2166C176.027 25.4411 176.173 24.7566 176.465 24.1634C176.757 23.5668 177.167 23.1011 177.698 22.7663C178.228 22.4316 178.853 22.2642 179.572 22.2642C180.152 22.2642 180.669 22.3719 181.123 22.5874C181.577 22.7995 181.944 23.0978 182.222 23.4822C182.504 23.8667 182.671 24.3158 182.724 24.8295H181.277C181.198 24.4716 181.016 24.1634 180.73 23.9048C180.449 23.6463 180.071 23.517 179.597 23.517C179.183 23.517 178.82 23.6264 178.508 23.8452C178.2 24.0606 177.96 24.3688 177.787 24.7699C177.615 25.1676 177.529 25.6383 177.529 26.1818C177.529 26.7386 177.613 27.2192 177.782 27.6236C177.951 28.0279 178.19 28.3411 178.498 28.5632C178.81 28.7853 179.176 28.8963 179.597 28.8963C179.879 28.8963 180.134 28.8449 180.363 28.7422C180.595 28.6361 180.788 28.4853 180.944 28.2898C181.103 28.0942 181.214 27.8589 181.277 27.5838H182.724C182.671 28.0777 182.51 28.5185 182.242 28.9062C181.973 29.294 181.614 29.599 181.163 29.821C180.716 30.0431 180.19 30.1541 179.587 30.1541ZM184.314 30V22.3636H185.8V25.5653H186.516L189.037 22.3636H190.876L187.918 26.0774L190.911 30H189.067L186.765 26.9474H185.8V30H184.314ZM193.522 27.9169L196.888 22.3636H198.489V30H197.032V24.4418L193.681 30H192.066V22.3636H193.522V27.9169ZM201.944 27.9169L205.31 22.3636H206.911V30H205.454V24.4418L202.103 30H200.488V22.3636H201.944V27.9169ZM204.674 19.7784H205.897C205.897 20.3385 205.698 20.7943 205.3 21.1456C204.906 21.4936 204.372 21.6676 203.699 21.6676C203.03 21.6676 202.498 21.4936 202.103 21.1456C201.709 20.7943 201.512 20.3385 201.512 19.7784H202.73C202.73 20.027 202.803 20.2474 202.949 20.4396C203.094 20.6286 203.345 20.723 203.699 20.723C204.047 20.723 204.296 20.6286 204.445 20.4396C204.597 20.2507 204.674 20.0303 204.674 19.7784ZM214.837 30.169C214.353 30.169 213.915 30.0795 213.524 29.9006C213.133 29.7183 212.823 29.4548 212.595 29.1101C212.369 28.7654 212.257 28.3428 212.257 27.8423C212.257 27.4115 212.339 27.0568 212.505 26.7784C212.671 26.5 212.895 26.2796 213.176 26.1172C213.458 25.9548 213.773 25.8321 214.121 25.7493C214.469 25.6664 214.824 25.6035 215.185 25.5604C215.642 25.5073 216.013 25.4643 216.298 25.4311C216.584 25.3946 216.791 25.3366 216.92 25.2571C217.049 25.1776 217.114 25.0483 217.114 24.8693V24.8345C217.114 24.4003 216.991 24.0639 216.746 23.8253C216.504 23.5866 216.143 23.4673 215.662 23.4673C215.162 23.4673 214.767 23.5784 214.479 23.8004C214.194 24.0192 213.997 24.2628 213.887 24.5312L212.49 24.2131C212.656 23.7491 212.898 23.3745 213.216 23.0895C213.538 22.8011 213.907 22.5923 214.325 22.4631C214.742 22.3305 215.182 22.2642 215.642 22.2642C215.947 22.2642 216.27 22.3007 216.612 22.3736C216.956 22.4432 217.278 22.5724 217.576 22.7614C217.878 22.9503 218.125 23.2204 218.317 23.5717C218.509 23.9197 218.605 24.3722 218.605 24.929V30H217.154V28.956H217.094C216.998 29.1482 216.854 29.3371 216.661 29.5227C216.469 29.7083 216.222 29.8625 215.921 29.9851C215.619 30.1077 215.258 30.169 214.837 30.169ZM215.16 28.9759C215.571 28.9759 215.922 28.8946 216.214 28.7322C216.509 28.5698 216.733 28.3577 216.885 28.0959C217.041 27.8307 217.119 27.5473 217.119 27.2457V26.2614C217.066 26.3144 216.963 26.3641 216.811 26.4105C216.661 26.4536 216.491 26.4917 216.298 26.5249C216.106 26.5547 215.919 26.5829 215.737 26.6094C215.554 26.6326 215.402 26.6525 215.279 26.669C214.991 26.7055 214.727 26.7668 214.489 26.853C214.253 26.9392 214.065 27.0634 213.922 27.2259C213.783 27.3849 213.713 27.5971 213.713 27.8622C213.713 28.2301 213.849 28.5085 214.121 28.6974C214.393 28.883 214.739 28.9759 215.16 28.9759ZM225.761 25.5405V26.8281H221.624V25.5405H225.761ZM222.042 22.3636V30H220.585V22.3636H222.042ZM226.8 22.3636V30H225.348V22.3636H226.8ZM231.011 30.169C230.527 30.169 230.089 30.0795 229.698 29.9006C229.307 29.7183 228.997 29.4548 228.768 29.1101C228.543 28.7654 228.43 28.3428 228.43 27.8423C228.43 27.4115 228.513 27.0568 228.679 26.7784C228.845 26.5 229.068 26.2796 229.35 26.1172C229.632 25.9548 229.947 25.8321 230.295 25.7493C230.643 25.6664 230.997 25.6035 231.359 25.5604C231.816 25.5073 232.187 25.4643 232.472 25.4311C232.757 25.3946 232.964 25.3366 233.094 25.2571C233.223 25.1776 233.288 25.0483 233.288 24.8693V24.8345C233.288 24.4003 233.165 24.0639 232.92 23.8253C232.678 23.5866 232.317 23.4673 231.836 23.4673C231.335 23.4673 230.941 23.5784 230.653 23.8004C230.368 24.0192 230.17 24.2628 230.061 24.5312L228.664 24.2131C228.83 23.7491 229.072 23.3745 229.39 23.0895C229.711 22.8011 230.081 22.5923 230.499 22.4631C230.916 22.3305 231.355 22.2642 231.816 22.2642C232.121 22.2642 232.444 22.3007 232.786 22.3736C233.13 22.4432 233.452 22.5724 233.75 22.7614C234.052 22.9503 234.299 23.2204 234.491 23.5717C234.683 23.9197 234.779 24.3722 234.779 24.929V30H233.327V28.956H233.268C233.172 29.1482 233.027 29.3371 232.835 29.5227C232.643 29.7083 232.396 29.8625 232.094 29.9851C231.793 30.1077 231.432 30.169 231.011 30.169ZM231.334 28.9759C231.745 28.9759 232.096 28.8946 232.388 28.7322C232.683 28.5698 232.906 28.3577 233.059 28.0959C233.215 27.8307 233.293 27.5473 233.293 27.2457V26.2614C233.24 26.3144 233.137 26.3641 232.984 26.4105C232.835 26.4536 232.665 26.4917 232.472 26.5249C232.28 26.5547 232.093 26.5829 231.911 26.6094C231.728 26.6326 231.576 26.6525 231.453 26.669C231.165 26.7055 230.901 26.7668 230.663 26.853C230.427 26.9392 230.238 27.0634 230.096 27.2259C229.957 27.3849 229.887 27.5971 229.887 27.8622C229.887 28.2301 230.023 28.5085 230.295 28.6974C230.567 28.883 230.913 28.9759 231.334 28.9759ZM236.157 30L236.153 28.7124H236.426C236.638 28.7124 236.815 28.6676 236.958 28.5781C237.104 28.4853 237.223 28.3295 237.316 28.1108C237.409 27.892 237.48 27.5904 237.53 27.206C237.579 26.8182 237.616 26.331 237.639 25.7443L237.773 22.3636H243.103V30H241.646V23.6463H239.15L239.031 26.2415C239.001 26.8712 238.937 27.4214 238.837 27.892C238.741 28.3627 238.6 28.7554 238.415 29.0703C238.229 29.3819 237.99 29.6155 237.699 29.7713C237.407 29.9238 237.052 30 236.635 30H236.157ZM246.542 27.9169L249.908 22.3636H251.509V30H250.052V24.4418L246.701 30H245.085V22.3636H246.542V27.9169ZM253.055 27.9815H254.576C254.596 28.2931 254.737 28.5334 254.999 28.7024C255.264 28.8714 255.607 28.956 256.028 28.956C256.455 28.956 256.82 28.8648 257.121 28.6825C257.423 28.4969 257.574 28.2102 257.574 27.8224C257.574 27.5904 257.516 27.3883 257.4 27.2159C257.287 27.0402 257.126 26.9044 256.918 26.8082C256.712 26.7121 256.469 26.6641 256.187 26.6641H254.944V25.4957H256.187C256.608 25.4957 256.923 25.3996 257.131 25.2074C257.34 25.0152 257.445 24.7749 257.445 24.4865C257.445 24.175 257.332 23.9247 257.107 23.7358C256.884 23.5436 256.575 23.4474 256.177 23.4474C255.772 23.4474 255.436 23.5386 255.168 23.7209C254.899 23.8999 254.758 24.1319 254.745 24.4169H253.244C253.254 23.9893 253.383 23.6148 253.631 23.2933C253.883 22.9685 254.221 22.7166 254.646 22.5376C255.073 22.3554 255.559 22.2642 256.102 22.2642C256.669 22.2642 257.16 22.3554 257.574 22.5376C257.988 22.7199 258.308 22.9718 258.533 23.2933C258.762 23.6148 258.876 23.9844 258.876 24.402C258.876 24.8229 258.75 25.1676 258.499 25.4361C258.25 25.7012 257.925 25.8918 257.524 26.0078V26.0874C257.819 26.1072 258.081 26.1967 258.31 26.3558C258.538 26.5149 258.717 26.7254 258.847 26.9872C258.976 27.2491 259.04 27.5457 259.04 27.8771C259.04 28.3445 258.911 28.7488 258.653 29.0902C258.397 29.4316 258.043 29.6951 257.589 29.8807C257.138 30.063 256.623 30.1541 256.043 30.1541C255.479 30.1541 254.974 30.0663 254.526 29.8906C254.082 29.7116 253.729 29.4598 253.467 29.1349C253.209 28.8101 253.071 28.4257 253.055 27.9815Z" fill="white"/>
</svg>
